<svg width="531" height="77" xmlns="http://www.w3.org/2000/svg"><g fill="none" fill-rule="evenodd"><path d="M495.584 33.446c.151 3.007.744 5.674 1.564 8.315.821 2.643 2.141 4.874 3.963 6.697 1.823 1.822 4.373 2.733 7.653 2.733 3.28 0 5.831-.91 7.653-2.733 1.821-1.823 3.063-4.08 3.963-6.697.65-1.887 1.67-6.127 1.67-10.315h.015c0-1.579-.016-1.636-.045-3.549a45.844 45.844 0 0 0-.457-5.739 42.703 42.703 0 0 0-1.183-5.604c-.517-1.82-1.275-3.416-2.278-4.782a11.74 11.74 0 0 0-3.78-3.325c-1.519-.85-3.372-1.275-5.558-1.275-2.187 0-4.039.424-5.557 1.275a11.73 11.73 0 0 0-3.78 3.325c-1.003 1.366-1.763 2.961-2.279 4.782a42.705 42.705 0 0 0-1.184 5.604 45.28 45.28 0 0 0-.455 5.74c-.03 1.912-.046.323-.046 1.902l.121 3.646zm-8.138-7.599c.121-2.55.424-5.04.911-7.47a36.642 36.642 0 0 1 2.095-6.924c.911-2.187 2.155-4.1 3.736-5.739 1.58-1.64 3.567-2.946 5.967-3.918 2.4-.97 5.268-1.457 8.61-1.457 3.34 0 6.21.486 8.608 1.457 2.398.972 4.388 2.278 5.968 3.918 1.578 1.64 2.824 3.552 3.734 5.74a36.644 36.644 0 0 1 2.096 6.923c.485 2.43.79 4.92.911 7.47.121 2.551.121 1.84.121 4.207l-.12 2.552a50.376 50.376 0 0 1-.912 7.47 35.502 35.502 0 0 1-2.096 6.88 18.517 18.517 0 0 1-3.734 5.692c-1.58 1.64-3.554 2.931-5.922 3.872-2.369.941-5.254 1.412-8.655 1.412-3.34 0-6.21-.47-8.609-1.412-2.4-.94-4.388-2.232-5.967-3.872a18.486 18.486 0 0 1-3.736-5.693 35.5 35.5 0 0 1-2.095-6.879 49.98 49.98 0 0 1-.91-7.47l-.124-2.552c0-2.368 0-1.656.123-4.207zM470.661 56.93V18.65h-13.763v-6.195c2.187 0 1.312-.166 3.377-.501 2.065-.333 3.932-.956 5.604-1.867a12.787 12.787 0 0 0 4.236-3.735c1.152-1.58 1.942-3.583 2.368-6.013h5.922V56.93h-7.744zm-33.745-30.165c-.578-2.095-1.458-3.963-2.643-5.603-1.183-1.64-2.703-2.945-4.554-3.917-1.854-.971-4.025-1.458-6.514-1.458-2.612 0-4.829.517-6.65 1.549-1.823 1.033-3.312 2.385-4.465 4.054-1.154 1.67-1.989 3.569-2.505 5.694a27.28 27.28 0 0 0-.774 6.468c0 2.309.273 4.54.82 6.696.546 2.157 1.412 4.055 2.596 5.694 1.184 1.64 2.717 2.96 4.6 3.963 1.882 1.002 4.16 1.504 6.833 1.504 2.672 0 4.904-.516 6.696-1.55 1.791-1.032 3.235-2.398 4.328-4.1 1.093-1.7 1.881-3.643 2.37-5.83.484-2.186.727-4.432.727-6.741 0-2.187-.289-4.327-.865-6.423zm-27.832-16.717v6.377h.183c1.275-2.611 3.28-4.51 6.012-5.694 2.733-1.184 5.74-1.777 9.02-1.777 3.643 0 6.816.669 9.52 2.005 2.701 1.336 4.95 3.143 6.741 5.42 1.791 2.278 3.143 4.906 4.054 7.88.911 2.977 1.366 6.136 1.366 9.475 0 3.342-.44 6.5-1.32 9.475-.882 2.976-2.219 5.573-4.009 7.789-1.793 2.218-4.04 3.963-6.742 5.239-2.703 1.275-5.846 1.913-9.429 1.913-1.154 0-2.445-.122-3.872-.364a21.56 21.56 0 0 1-4.236-1.185 16.49 16.49 0 0 1-3.963-2.232 12.43 12.43 0 0 1-3.142-3.507h-.183v24.233h-7.744V10.048h7.744zM358.751 41.25c.758 2.218 1.806 4.07 3.143 5.557a13.604 13.604 0 0 0 4.691 3.417c1.791.79 3.69 1.184 5.694 1.184s3.902-.394 5.695-1.184a13.641 13.641 0 0 0 4.691-3.417c1.335-1.487 2.383-3.339 3.143-5.557.758-2.216 1.138-4.75 1.138-7.607 0-2.854-.38-5.389-1.138-7.607-.76-2.216-1.808-4.084-3.143-5.603-1.337-1.517-2.9-2.672-4.69-3.462a14 14 0 0 0-5.696-1.184c-2.004 0-3.903.396-5.694 1.184-1.792.79-3.356 1.945-4.69 3.462-1.338 1.52-2.386 3.387-3.144 5.603-.76 2.218-1.14 4.753-1.14 7.607 0 2.856.38 5.391 1.14 7.607m-7.88-17.31c.97-3.006 2.428-5.616 4.372-7.834 1.944-2.216 4.342-3.963 7.197-5.239 2.854-1.275 6.134-1.913 9.84-1.913 3.764 0 7.06.638 9.884 1.913 2.824 1.276 5.207 3.023 7.151 5.24s3.401 4.827 4.374 7.833c.97 3.007 1.457 6.241 1.457 9.703 0 3.462-.487 6.682-1.457 9.657-.973 2.976-2.43 5.573-4.374 7.79-1.944 2.217-4.327 3.948-7.15 5.192-2.825 1.244-6.12 1.867-9.886 1.867-3.705 0-6.985-.623-9.839-1.867-2.855-1.244-5.253-2.975-7.197-5.193-1.944-2.216-3.402-4.813-4.373-7.789-.973-2.975-1.458-6.195-1.458-9.657 0-3.462.485-6.696 1.458-9.703M321.649 9.766h7.888V.842h7.618v8.924h9.23v6.722h-9.23v29.77c0 .897.074 1.613.223 2.151.149.538.433.957.852 1.255.418.3 1 .493 1.748.583.746.09 1.717.134 2.912.134h3.496v6.722h-5.826c-1.972 0-3.66-.134-5.063-.403-1.406-.269-2.541-.762-3.407-1.479-.866-.717-1.51-1.733-1.926-3.047-.42-1.314-.627-3.048-.627-5.199V16.488h-7.888" fill="#FFF"/><path d="M302.66 48.482c.241-.003 1.686-.042 2.223-.042h.008c.842.033 2.103.663 2.136 1.919v4.866c-.089.319.012 1.512-2.05 1.686-1.432 0-2.684-.012-2.712-.012-20.172.012-19.45-19.525-19.45-19.525V2.523c0-1.07.861-1.967 1.926-1.967h4.557c1.064 0 1.99.898 1.99 1.964v7.324h15.475c1.134 0 1.834 1.327 1.834 1.915v4.897c-.04.858-.977 1.759-1.84 1.759-.485 0-12.76.015-15.469.015v18.639s-.614 11.449 11.372 11.413m-45.784 6.437c0 1.065-.926 1.966-1.988 1.966h-4.56c-1.063 0-1.924-.901-1.924-1.97v-25.49s-.72-19.537 19.451-19.525c.027 0 7.234-.012 8.666-.012 2.063.175 1.963 1.366 2.05 1.686v4.864c-.034 1.256-1.292 1.889-2.133 1.92h-.01c-.539 0-7.939-.037-8.179-.041-11.986-.034-11.373 11.413-11.373 11.413v25.19zM243.735 26.52c0-8.244-1.623-16.66-13.633-16.66H217.37c-8.741.068-13.16 4.664-13.496 14.06v19.515c0 8.445 5.096 13.481 13.634 13.481h7.502v.014h5.229c8.742-.065 13.162-4.664 13.496-14.06V26.52zm-12.773 21.832l-5.96.092h-7.494c-3.866 0-5.158-1.258-5.158-5.013V23.422c.068-4.71 2.409-4.855 4.296-4.983l13.463-.029c4.753 0 5.158 1.973 5.158 8.096l-.007 16.865c-.068 4.706-2.411 4.853-4.298 4.981zm-31.758-21.98c0-8.56-1.655-16.485-13.634-16.485h-12.628c-8.532 0-13.625 5.087-13.625 13.59l-.039 40.527c0 1.22.602 1.972 1.573 1.972h4.948c1.05 0 1.968-.923 1.968-1.964l.005-7.12h17.774c11.981 0 13.634-7.93 13.634-16.487v-3.68l.024-10.353zm-9.63 20.959c-.778.77-2.088 1.15-4.028 1.15h-17.77l.016-25.003c0-3.752 1.347-5.093 5.15-5.093h14.073c1.165.15 2.015.503 2.581 1.06 1.13 1.162 1.122 3.236 1.087 5.643l-.022 16.6c.033 2.41.04 4.485-1.088 5.643zm-39.33 1.796c.243-.003 1.686-.042 2.224-.042h.008c.842.032 2.102.664 2.137 1.92v4.865c-.09.32.011 1.512-2.053 1.684-1.429 0-2.682-.01-2.71-.01-20.172.012-19.452-19.525-19.452-19.525V3.17c0-1.07.865-1.969 1.927-1.969h4.558c1.064 0 1.991.9 1.991 1.964v7.324h15.475c1.131 0 1.832 1.328 1.832 1.915V17.3c-.039.861-.976 1.762-1.84 1.762-.484 0-12.76.015-15.467.015v18.64s-.615 11.445 11.37 11.411m-24.431-15.197v-7.417c0-8.235-1.62-16.655-13.633-16.655H91.098c-1.486 0-2.328.786-2.328 2.164v4.474c0 .703.303 1.888 2.314 1.93.075.007 21.096-.027 21.096-.027 4.757 0 5.149 1.985 5.149 8.106l-.002.253c-2.77.003-11.164.01-18.104.01-8.326.033-13.048 4.98-13.28 13.95l.012 2.715c0 8.441 5.087 13.48 13.627 13.48h7.518l.022.024h5.229c8.742-.067 13.16-4.663 13.498-14.06v-8.947h-.036zm-12.74 14.426l-14.682.032c-2.938-.264-3.974-1.628-3.974-4.958v-3.266c.194-2.418.42-4.907 4.906-4.907h17.988l.06 8.12c-.067 4.708-2.41 4.851-4.297 4.98zm-34.224-.008c-.077-.006-21.097.026-21.097.026-4.758 0-5.148-1.982-5.148-8.107v-.252c2.769-.001 11.165-.01 18.104-.01 8.328-.03 13.047-4.98 13.28-13.95l-.01-2.715c0-8.44-5.087-13.481-13.631-13.481h-8.85l-3.841.012c-8.744.067-13.161 4.664-13.495 14.06l-.041 16.33c0 8.234 1.617 16.654 13.632 16.654h21.08c1.486 0 2.328-.785 2.328-2.162v-4.475c0-.703-.3-1.887-2.311-1.93M56.932 18.453l14.925-.03c2.694.33 3.659 1.713 3.659 4.922v3.264c-.196 2.419-.422 4.91-4.908 4.91H52.635v-8.087c.069-4.707 2.412-4.852 4.297-4.98m-16.699 7.734c0-8.312-1.627-16.8-13.736-16.8H8.569V1.983C8.569.909 7.654 0 6.579 0h-4.59C.913 0 .002.909.002 1.987v41.259C0 51.764 5.18 56.84 13.78 56.84h12.956c8.743-.067 13.164-4.664 13.496-14.06V26.186zM27.46 48.26l-5.96.029v.009h-7.72c-3.884 0-5.191-1.27-5.191-5.057l-.018-25.235h17.925c4.79 0 5.164 1.992 5.164 8.166l.03 17.107c-.068 4.707-2.343 4.853-4.23 4.98z" fill="#9C0"/></g></svg>